<svg xmlns="http://www.w3.org/2000/svg" xmlns:xlink="http://www.w3.org/1999/xlink" width="680" zoomAndPan="magnify" viewBox="0 0 510 209.999996" height="280" preserveAspectRatio="xMidYMid meet" version="1.0"><defs><filter x="0%" y="0%" width="100%" height="100%" id="10937dcb6c"><feColorMatrix values="0 0 0 0 1 0 0 0 0 1 0 0 0 0 1 0 0 0 1 0" color-interpolation-filters="sRGB"/></filter><g/><mask id="d40af63b8b"><g filter="url(#10937dcb6c)"><rect x="-51" width="612" fill="#000000" y="-21" height="251.999995" fill-opacity="0.2"/></g></mask><clipPath id="16f28adc6c"><rect x="0" width="5" y="0" height="122"/></clipPath></defs><rect x="-51" width="612" fill="transparent" y="-21" height="251.999995" fill-opacity="0"/><rect x="-51" width="612" fill="transparent" y="-21" height="251.999995" fill-opacity="0"/><path fill="#1b3a6b" d="M 31.128906 57.558594 L 197.289062 57.558594 C 197.71875 57.558594 198.140625 57.597656 198.5625 57.683594 C 198.980469 57.765625 199.390625 57.890625 199.785156 58.054688 C 200.179688 58.214844 200.554688 58.417969 200.910156 58.65625 C 201.265625 58.894531 201.597656 59.164062 201.898438 59.464844 C 202.199219 59.769531 202.472656 60.097656 202.707031 60.453125 C 202.945312 60.808594 203.148438 61.183594 203.3125 61.578125 C 203.472656 61.972656 203.597656 62.382812 203.679688 62.800781 C 203.765625 63.21875 203.808594 63.644531 203.808594 64.070312 L 203.808594 77.101562 C 203.808594 77.527344 203.765625 77.953125 203.679688 78.371094 C 203.597656 78.789062 203.472656 79.199219 203.3125 79.59375 C 203.148438 79.988281 202.945312 80.363281 202.707031 80.71875 C 202.472656 81.074219 202.199219 81.402344 201.898438 81.707031 C 201.597656 82.007812 201.265625 82.277344 200.910156 82.515625 C 200.554688 82.753906 200.179688 82.953125 199.785156 83.117188 C 199.390625 83.28125 198.980469 83.40625 198.5625 83.488281 C 198.140625 83.574219 197.71875 83.613281 197.289062 83.613281 L 31.128906 83.613281 C 30.703125 83.613281 30.277344 83.574219 29.859375 83.488281 C 29.4375 83.40625 29.03125 83.28125 28.636719 83.117188 C 28.242188 82.953125 27.867188 82.753906 27.507812 82.515625 C 27.152344 82.277344 26.824219 82.007812 26.523438 81.707031 C 26.21875 81.402344 25.949219 81.074219 25.710938 80.71875 C 25.472656 80.363281 25.273438 79.988281 25.109375 79.59375 C 24.945312 79.199219 24.824219 78.789062 24.738281 78.371094 C 24.65625 77.953125 24.613281 77.527344 24.613281 77.101562 L 24.613281 64.070312 C 24.613281 63.644531 24.65625 63.21875 24.738281 62.800781 C 24.824219 62.382812 24.945312 61.972656 25.109375 61.578125 C 25.273438 61.183594 25.472656 60.808594 25.710938 60.453125 C 25.949219 60.097656 26.21875 59.769531 26.523438 59.464844 C 26.824219 59.164062 27.152344 58.894531 27.507812 58.65625 C 27.867188 58.417969 28.242188 58.214844 28.636719 58.054688 C 29.03125 57.890625 29.4375 57.765625 29.859375 57.683594 C 30.277344 57.597656 30.703125 57.558594 31.128906 57.558594 Z M 31.128906 57.558594 " fill-opacity="0.25" fill-rule="nonzero"/><path fill="#1b3a6b" d="M 31.128906 90.128906 L 197.289062 90.128906 C 197.71875 90.128906 198.140625 90.171875 198.5625 90.253906 C 198.980469 90.335938 199.390625 90.460938 199.785156 90.625 C 200.179688 90.789062 200.554688 90.988281 200.910156 91.226562 C 201.265625 91.464844 201.597656 91.734375 201.898438 92.035156 C 202.199219 92.339844 202.472656 92.667969 202.707031 93.023438 C 202.945312 93.378906 203.148438 93.753906 203.3125 94.148438 C 203.472656 94.546875 203.597656 94.953125 203.679688 95.371094 C 203.765625 95.792969 203.808594 96.214844 203.808594 96.644531 L 203.808594 109.671875 C 203.808594 110.097656 203.765625 110.523438 203.679688 110.941406 C 203.597656 111.363281 203.472656 111.769531 203.3125 112.164062 C 203.148438 112.558594 202.945312 112.933594 202.707031 113.289062 C 202.472656 113.644531 202.199219 113.976562 201.898438 114.277344 C 201.597656 114.582031 201.265625 114.851562 200.910156 115.085938 C 200.554688 115.324219 200.179688 115.527344 199.785156 115.691406 C 199.390625 115.855469 198.980469 115.976562 198.5625 116.058594 C 198.140625 116.144531 197.71875 116.1875 197.289062 116.1875 L 31.128906 116.1875 C 30.703125 116.1875 30.277344 116.144531 29.859375 116.058594 C 29.4375 115.976562 29.03125 115.855469 28.636719 115.691406 C 28.242188 115.527344 27.867188 115.324219 27.507812 115.085938 C 27.152344 114.851562 26.824219 114.582031 26.523438 114.277344 C 26.21875 113.976562 25.949219 113.644531 25.710938 113.289062 C 25.472656 112.933594 25.273438 112.558594 25.109375 112.164062 C 24.945312 111.769531 24.824219 111.363281 24.738281 110.941406 C 24.65625 110.523438 24.613281 110.097656 24.613281 109.671875 L 24.613281 96.644531 C 24.613281 96.214844 24.65625 95.792969 24.738281 95.371094 C 24.824219 94.953125 24.945312 94.546875 25.109375 94.148438 C 25.273438 93.753906 25.472656 93.378906 25.710938 93.023438 C 25.949219 92.667969 26.21875 92.339844 26.523438 92.035156 C 26.824219 91.734375 27.152344 91.464844 27.507812 91.226562 C 27.867188 90.988281 28.242188 90.789062 28.636719 90.625 C 29.03125 90.460938 29.4375 90.335938 29.859375 90.253906 C 30.277344 90.171875 30.703125 90.128906 31.128906 90.128906 Z M 31.128906 90.128906 " fill-opacity="0.55" fill-rule="nonzero"/><path fill="#1b3a6b" d="M 31.128906 122.699219 L 197.289062 122.699219 C 197.71875 122.699219 198.140625 122.742188 198.5625 122.824219 C 198.980469 122.910156 199.390625 123.03125 199.785156 123.195312 C 200.179688 123.359375 200.554688 123.558594 200.910156 123.796875 C 201.265625 124.035156 201.597656 124.304688 201.898438 124.609375 C 202.199219 124.910156 202.472656 125.238281 202.707031 125.59375 C 202.945312 125.949219 203.148438 126.328125 203.3125 126.722656 C 203.472656 127.117188 203.597656 127.523438 203.679688 127.945312 C 203.765625 128.363281 203.808594 128.785156 203.808594 129.214844 L 203.808594 142.242188 C 203.808594 142.671875 203.765625 143.09375 203.679688 143.515625 C 203.597656 143.933594 203.472656 144.339844 203.3125 144.734375 C 203.148438 145.132812 202.945312 145.507812 202.707031 145.863281 C 202.472656 146.21875 202.199219 146.546875 201.898438 146.847656 C 201.597656 147.152344 201.265625 147.421875 200.910156 147.660156 C 200.554688 147.898438 200.179688 148.097656 199.785156 148.261719 C 199.390625 148.425781 198.980469 148.546875 198.5625 148.632812 C 198.140625 148.714844 197.71875 148.757812 197.289062 148.757812 L 31.128906 148.757812 C 30.703125 148.757812 30.277344 148.714844 29.859375 148.632812 C 29.4375 148.546875 29.03125 148.425781 28.636719 148.261719 C 28.242188 148.097656 27.867188 147.898438 27.507812 147.660156 C 27.152344 147.421875 26.824219 147.152344 26.523438 146.847656 C 26.21875 146.546875 25.949219 146.21875 25.710938 145.863281 C 25.472656 145.507812 25.273438 145.132812 25.109375 144.734375 C 24.945312 144.339844 24.824219 143.933594 24.738281 143.515625 C 24.65625 143.09375 24.613281 142.671875 24.613281 142.242188 L 24.613281 129.214844 C 24.613281 128.785156 24.65625 128.363281 24.738281 127.945312 C 24.824219 127.523438 24.945312 127.117188 25.109375 126.722656 C 25.273438 126.328125 25.472656 125.949219 25.710938 125.59375 C 25.949219 125.238281 26.21875 124.910156 26.523438 124.609375 C 26.824219 124.304688 27.152344 124.035156 27.507812 123.796875 C 27.867188 123.558594 28.242188 123.359375 28.636719 123.195312 C 29.03125 123.03125 29.4375 122.910156 29.859375 122.824219 C 30.277344 122.742188 30.703125 122.699219 31.128906 122.699219 Z M 31.128906 122.699219 " fill-opacity="1" fill-rule="nonzero"/><g mask="url(#d40af63b8b)"><g transform="matrix(1, 0, 0, 1, 229, 42)"><g clip-path="url(#16f28adc6c)"><path stroke-linecap="butt" transform="matrix(1.629029, 0, 0, 1.628571, -473.176123, -179.871378)" fill="none" stroke-linejoin="miter" d="M 291.999778 111.999217 L 291.999778 183.999629 " stroke="#1b3a6b" stroke-width="1" stroke-opacity="1" stroke-miterlimit="4"/></g></g></g><g fill="#1b3a6b" fill-opacity="1"><g transform="translate(251.767512, 78.697511)"><g><path d="M 28.25 0 L 28.25 -19.4375 C 28.25 -21.582031 28.304688 -23.648438 28.421875 -25.640625 C 27.753906 -23.171875 27.148438 -21.238281 26.609375 -19.84375 L 19.078125 0 L 16.3125 0 L 8.6875 -19.84375 L 7.53125 -23.359375 L 6.84375 -25.640625 L 6.90625 -23.34375 L 6.984375 -19.4375 L 6.984375 0 L 3.46875 0 L 3.46875 -29.125 L 8.65625 -29.125 L 16.421875 -8.9375 C 16.691406 -8.125 16.953125 -7.25 17.203125 -6.3125 C 17.460938 -5.382812 17.632812 -4.710938 17.71875 -4.296875 C 17.832031 -4.847656 18.0625 -5.6875 18.40625 -6.8125 C 18.757812 -7.9375 19 -8.644531 19.125 -8.9375 L 26.734375 -29.125 L 31.796875 -29.125 L 31.796875 0 Z M 28.25 0 "/></g></g></g><g fill="#1b3a6b" fill-opacity="1"><g transform="translate(296.819002, 78.697511)"><g><path d="M 3.46875 0 L 3.46875 -29.125 L 25.578125 -29.125 L 25.578125 -25.90625 L 7.421875 -25.90625 L 7.421875 -16.5625 L 24.328125 -16.5625 L 24.328125 -13.375 L 7.421875 -13.375 L 7.421875 -3.21875 L 26.421875 -3.21875 L 26.421875 0 Z M 11.390625 -31.640625 L 11.390625 -32.046875 L 15.875 -36.71875 L 20.15625 -36.71875 L 20.15625 -36.125 L 13.75 -31.640625 Z M 11.390625 -31.640625 "/></g></g></g><g fill="#1b3a6b" fill-opacity="1"><g transform="translate(334.839842, 78.697511)"><g><path d="M 14.890625 -25.90625 L 14.890625 0 L 10.953125 0 L 10.953125 -25.90625 L 0.953125 -25.90625 L 0.953125 -29.125 L 24.890625 -29.125 L 24.890625 -25.90625 Z M 14.890625 -25.90625 "/></g></g></g><g fill="#1b3a6b" fill-opacity="1"><g transform="translate(369.717556, 78.697511)"><g><path d="M 30.90625 -14.703125 C 30.90625 -11.648438 30.320312 -8.976562 29.15625 -6.6875 C 28 -4.40625 26.328125 -2.648438 24.140625 -1.421875 C 21.960938 -0.203125 19.394531 0.40625 16.4375 0.40625 C 13.445312 0.40625 10.863281 -0.195312 8.6875 -1.40625 C 6.519531 -2.613281 4.863281 -4.363281 3.71875 -6.65625 C 2.570312 -8.957031 2 -11.640625 2 -14.703125 C 2 -19.359375 3.273438 -23 5.828125 -25.625 C 8.378906 -28.25 11.929688 -29.5625 16.484375 -29.5625 C 19.441406 -29.5625 22.007812 -28.972656 24.1875 -27.796875 C 26.363281 -26.617188 28.023438 -24.90625 29.171875 -22.65625 C 30.328125 -20.414062 30.90625 -17.765625 30.90625 -14.703125 Z M 26.875 -14.703125 C 26.875 -18.328125 25.96875 -21.171875 24.15625 -23.234375 C 22.34375 -25.304688 19.785156 -26.34375 16.484375 -26.34375 C 13.140625 -26.34375 10.554688 -25.320312 8.734375 -23.28125 C 6.921875 -21.238281 6.015625 -18.378906 6.015625 -14.703125 C 6.015625 -11.046875 6.929688 -8.144531 8.765625 -6 C 10.609375 -3.863281 13.164062 -2.796875 16.4375 -2.796875 C 19.800781 -2.796875 22.378906 -3.832031 24.171875 -5.90625 C 25.972656 -7.976562 26.875 -10.910156 26.875 -14.703125 Z M 26.875 -14.703125 "/></g></g></g><g fill="#1b3a6b" fill-opacity="1"><g transform="translate(412.432389, 78.697511)"><g><path d="M 28.546875 -14.859375 C 28.546875 -11.859375 27.957031 -9.226562 26.78125 -6.96875 C 25.613281 -4.71875 23.957031 -2.992188 21.8125 -1.796875 C 19.664062 -0.597656 17.1875 0 14.375 0 L 3.46875 0 L 3.46875 -29.125 L 13.109375 -29.125 C 18.046875 -29.125 21.851562 -27.882812 24.53125 -25.40625 C 27.207031 -22.9375 28.546875 -19.421875 28.546875 -14.859375 Z M 24.578125 -14.859375 C 24.578125 -18.472656 23.585938 -21.226562 21.609375 -23.125 C 19.640625 -25.019531 16.78125 -25.96875 13.03125 -25.96875 L 7.421875 -25.96875 L 7.421875 -3.15625 L 13.921875 -3.15625 C 16.054688 -3.15625 17.929688 -3.625 19.546875 -4.5625 C 21.171875 -5.5 22.414062 -6.847656 23.28125 -8.609375 C 24.144531 -10.378906 24.578125 -12.460938 24.578125 -14.859375 Z M 24.578125 -14.859375 "/></g></g></g><g fill="#1b3a6b" fill-opacity="1"><g transform="translate(452.789886, 78.697511)"><g><path d="M 30.90625 -14.703125 C 30.90625 -11.648438 30.320312 -8.976562 29.15625 -6.6875 C 28 -4.40625 26.328125 -2.648438 24.140625 -1.421875 C 21.960938 -0.203125 19.394531 0.40625 16.4375 0.40625 C 13.445312 0.40625 10.863281 -0.195312 8.6875 -1.40625 C 6.519531 -2.613281 4.863281 -4.363281 3.71875 -6.65625 C 2.570312 -8.957031 2 -11.640625 2 -14.703125 C 2 -19.359375 3.273438 -23 5.828125 -25.625 C 8.378906 -28.25 11.929688 -29.5625 16.484375 -29.5625 C 19.441406 -29.5625 22.007812 -28.972656 24.1875 -27.796875 C 26.363281 -26.617188 28.023438 -24.90625 29.171875 -22.65625 C 30.328125 -20.414062 30.90625 -17.765625 30.90625 -14.703125 Z M 26.875 -14.703125 C 26.875 -18.328125 25.96875 -21.171875 24.15625 -23.234375 C 22.34375 -25.304688 19.785156 -26.34375 16.484375 -26.34375 C 13.140625 -26.34375 10.554688 -25.320312 8.734375 -23.28125 C 6.921875 -21.238281 6.015625 -18.378906 6.015625 -14.703125 C 6.015625 -11.046875 6.929688 -8.144531 8.765625 -6 C 10.609375 -3.863281 13.164062 -2.796875 16.4375 -2.796875 C 19.800781 -2.796875 22.378906 -3.832031 24.171875 -5.90625 C 25.972656 -7.976562 26.875 -10.910156 26.875 -14.703125 Z M 26.875 -14.703125 "/></g></g></g><g fill="#1b3a6b" fill-opacity="1"><g transform="translate(251.767512, 161.755697)"><g><path d="M 62.734375 -19.171875 C 62.734375 -12.765625 60.222656 -7.800781 55.203125 -4.28125 C 50.191406 -0.769531 43.132812 0.984375 34.03125 0.984375 C 17.09375 0.984375 7.28125 -4.894531 4.59375 -16.65625 L 13.703125 -18.484375 C 14.753906 -14.316406 16.988281 -11.253906 20.40625 -9.296875 C 23.832031 -7.335938 28.488281 -6.359375 34.375 -6.359375 C 40.457031 -6.359375 45.148438 -7.398438 48.453125 -9.484375 C 51.753906 -11.578125 53.40625 -14.644531 53.40625 -18.6875 C 53.40625 -20.957031 52.882812 -22.796875 51.84375 -24.203125 C 50.8125 -25.617188 49.359375 -26.785156 47.484375 -27.703125 C 45.617188 -28.628906 43.382812 -29.40625 40.78125 -30.03125 C 38.1875 -30.65625 35.3125 -31.328125 32.15625 -32.046875 C 26.664062 -33.265625 22.5 -34.476562 19.65625 -35.6875 C 16.8125 -36.90625 14.566406 -38.257812 12.921875 -39.75 C 11.273438 -41.25 10.015625 -43 9.140625 -45 C 8.273438 -47.007812 7.84375 -49.316406 7.84375 -51.921875 C 7.84375 -57.867188 10.117188 -62.453125 14.671875 -65.671875 C 19.222656 -68.890625 25.738281 -70.5 34.21875 -70.5 C 42.113281 -70.5 48.148438 -69.289062 52.328125 -66.875 C 56.503906 -64.457031 59.429688 -60.34375 61.109375 -54.53125 L 51.828125 -52.90625 C 50.804688 -56.582031 48.863281 -59.25 46 -60.90625 C 43.144531 -62.570312 39.1875 -63.40625 34.125 -63.40625 C 28.570312 -63.40625 24.332031 -62.484375 21.40625 -60.640625 C 18.476562 -58.796875 17.015625 -56.050781 17.015625 -52.40625 C 17.015625 -50.269531 17.582031 -48.503906 18.71875 -47.109375 C 19.851562 -45.710938 21.488281 -44.53125 23.625 -43.5625 C 25.757812 -42.59375 30.015625 -41.398438 36.390625 -39.984375 C 38.523438 -39.492188 40.65625 -38.992188 42.78125 -38.484375 C 44.90625 -37.972656 46.9375 -37.363281 48.875 -36.65625 C 50.8125 -35.945312 52.625 -35.113281 54.3125 -34.15625 C 56.007812 -33.207031 57.484375 -32.039062 58.734375 -30.65625 C 59.984375 -29.28125 60.960938 -27.65625 61.671875 -25.78125 C 62.378906 -23.90625 62.734375 -21.703125 62.734375 -19.171875 Z M 62.734375 -19.171875 "/></g></g></g><g fill="#1b3a6b" fill-opacity="1"><g transform="translate(317.495931, 161.755697)"><g><path d="M 27.328125 -0.390625 C 24.398438 0.390625 21.40625 0.78125 18.34375 0.78125 C 11.238281 0.78125 7.6875 -3.242188 7.6875 -11.296875 L 7.6875 -46.890625 L 1.53125 -46.890625 L 1.53125 -53.34375 L 8.03125 -53.34375 L 10.65625 -65.28125 L 16.578125 -65.28125 L 16.578125 -53.34375 L 26.4375 -53.34375 L 26.4375 -46.890625 L 16.578125 -46.890625 L 16.578125 -13.21875 C 16.578125 -10.65625 16.992188 -8.851562 17.828125 -7.8125 C 18.660156 -6.78125 20.113281 -6.265625 22.1875 -6.265625 C 23.375 -6.265625 25.085938 -6.492188 27.328125 -6.953125 Z M 27.328125 -0.390625 "/></g></g></g><g fill="#1b3a6b" fill-opacity="1"><g transform="translate(343.924289, 161.755697)"><g><path d="M 20.421875 0.984375 C 15.054688 0.984375 11.023438 -0.425781 8.328125 -3.25 C 5.640625 -6.082031 4.296875 -9.960938 4.296875 -14.890625 C 4.296875 -20.410156 6.109375 -24.648438 9.734375 -27.609375 C 13.367188 -30.566406 19.234375 -32.144531 27.328125 -32.34375 L 39.3125 -32.53125 L 39.3125 -35.453125 C 39.3125 -39.785156 38.390625 -42.890625 36.546875 -44.765625 C 34.703125 -46.640625 31.804688 -47.578125 27.859375 -47.578125 C 23.878906 -47.578125 20.984375 -46.898438 19.171875 -45.546875 C 17.367188 -44.203125 16.285156 -42.050781 15.921875 -39.09375 L 6.65625 -39.9375 C 8.164062 -49.53125 15.300781 -54.328125 28.0625 -54.328125 C 34.769531 -54.328125 39.816406 -52.789062 43.203125 -49.71875 C 46.585938 -46.644531 48.28125 -42.203125 48.28125 -36.390625 L 48.28125 -13.40625 C 48.28125 -10.78125 48.625 -8.800781 49.3125 -7.46875 C 50.007812 -6.132812 51.328125 -5.46875 53.265625 -5.46875 C 54.117188 -5.46875 55.085938 -5.582031 56.171875 -5.8125 L 56.171875 -0.296875 C 53.929688 0.234375 51.644531 0.5 49.3125 0.5 C 46.03125 0.5 43.640625 -0.363281 42.140625 -2.09375 C 40.640625 -3.820312 39.789062 -6.523438 39.59375 -10.203125 L 39.3125 -10.203125 C 37.039062 -6.128906 34.398438 -3.242188 31.390625 -1.546875 C 28.378906 0.140625 24.722656 0.984375 20.421875 0.984375 Z M 22.4375 -5.671875 C 25.695312 -5.671875 28.59375 -6.410156 31.125 -7.890625 C 33.65625 -9.367188 35.648438 -11.394531 37.109375 -13.96875 C 38.578125 -16.550781 39.3125 -19.207031 39.3125 -21.9375 L 39.3125 -26.328125 L 29.59375 -26.125 C 25.414062 -26.0625 22.25 -25.632812 20.09375 -24.84375 C 17.9375 -24.0625 16.285156 -22.847656 15.140625 -21.203125 C 13.992188 -19.554688 13.421875 -17.398438 13.421875 -14.734375 C 13.421875 -11.847656 14.195312 -9.613281 15.75 -8.03125 C 17.3125 -6.457031 19.539062 -5.671875 22.4375 -5.671875 Z M 22.4375 -5.671875 "/></g></g></g><g fill="#1b3a6b" fill-opacity="1"><g transform="translate(398.459341, 161.755697)"><g><path d="M 13.5625 -26.921875 C 13.5625 -19.816406 14.675781 -14.554688 16.90625 -11.140625 C 19.144531 -7.722656 22.519531 -6.015625 27.03125 -6.015625 C 30.1875 -6.015625 32.820312 -6.867188 34.9375 -8.578125 C 37.0625 -10.285156 38.367188 -12.914062 38.859375 -16.46875 L 47.84375 -15.875 C 47.144531 -10.75 44.953125 -6.65625 41.265625 -3.59375 C 37.585938 -0.539062 32.921875 0.984375 27.265625 0.984375 C 19.804688 0.984375 14.113281 -1.367188 10.1875 -6.078125 C 6.257812 -10.796875 4.296875 -17.675781 4.296875 -26.71875 C 4.296875 -35.695312 6.265625 -42.539062 10.203125 -47.25 C 14.148438 -51.96875 19.804688 -54.328125 27.171875 -54.328125 C 32.628906 -54.328125 37.15625 -52.910156 40.75 -50.078125 C 44.351562 -47.253906 46.617188 -43.363281 47.546875 -38.40625 L 38.421875 -37.71875 C 37.960938 -40.675781 36.796875 -43.023438 34.921875 -44.765625 C 33.046875 -46.503906 30.378906 -47.375 26.921875 -47.375 C 22.222656 -47.375 18.820312 -45.8125 16.71875 -42.6875 C 14.613281 -39.570312 13.5625 -34.316406 13.5625 -26.921875 Z M 13.5625 -26.921875 "/></g></g></g><g fill="#1b3a6b" fill-opacity="1"><g transform="translate(447.323743, 161.755697)"><g><path d="M 40.25 0 L 22.1875 -24.359375 L 15.6875 -18.984375 L 15.6875 0 L 6.8125 0 L 6.8125 -73.15625 L 15.6875 -73.15625 L 15.6875 -27.453125 L 39.109375 -53.34375 L 49.515625 -53.34375 L 27.859375 -30.421875 L 50.640625 0 Z M 40.25 0 "/></g></g></g></svg>
